# AST/ASF file generated using VICON BodyLanguage
# -----------------------------------------------
:version 1.10
:name VICON
:units
  mass 1.0
  length 0.45
  angle deg
:documentation
   .ast/.asf automatically generated from VICON data using
   VICON BodyBuilder and BodyLanguage model FoxedUp or BRILLIANT.MOD
:root
   order TX TY TZ RX RY RZ
   axis XYZ
   position 0 0 0  
   orientation 0 0 0 
:bonedata
  begin
     id 1 
     name lhipjoint
     direction 0.578396 -0.714046 0.394458 
     length 2.21935 
     axis 0 0 0  XYZ
  end
  begin
     id 2 
     name lfemur
     direction 0.34202 -0.939693 0  
     length 6.39105  
     axis 0 0 20  XYZ
    dof rx ry rz
    limits (-160.0 20.0)
           (-70.0 70.0)
           (-60.0 70.0)
  end
  begin
     id 3 
     name ltibia
     direction 0.34202 -0.939693 0   
     length 6.99037   
     axis 0 0 20   XYZ
    dof rx
    limits (-10.0 170.0)
  end
  begin
     id 4 
     name lfoot
     direction 0.0582372 -0.160005 0.985397   
     length 2.06111   
     axis -90 7.62852e-016 20   XYZ
    dof rx rz
    limits (-45.0 90.0)
           (-70.0 20.0)
  end
  begin
     id 5 
     name ltoes
     direction 1.53556e-011 -4.21875e-011 1   
     length 1.04074   
     axis -90 7.62852e-016 20   XYZ
    dof rx
    limits (-90.0 20.0)
  end
  begin
     id 6 
     name rhipjoint
     direction -0.558179 -0.726269 0.40121   
     length 2.182  
     axis 0 0 0  XYZ 
  end
  begin
     id 7 
     name rfemur
     direction -0.34202 -0.939693 0   
     length 6.51172   
     axis 0 0 -20   XYZ
    dof rx ry rz
    limits (-160.0 20.0)
           (-70.0 70.0)
           (-70.0 60.0)
  end
  begin
     id 8 
     name rtibia
     direction -0.34202 -0.939693 0   
     length 7.02607   
     axis 0 0 -20   XYZ
    dof rx
    limits (-10.0 170.0)
 end
 begin
     id 9 
     name rfoot
     direction -0.0788856 -0.216737 0.973038   
     length 1.96734  
     axis -90 -7.62852e-016 -20   XYZ
    dof rx rz
    limits (-45.0 90.0)
           (-20.0 70.0)
  end
  begin
     id 10 
     name rtoes
     direction -1.53567e-011 -4.21783e-011 1   
     length 0.990825   
     axis -90 -7.62852e-016 -20   XYZ
    dof rx
    limits (-90.0 20.0)
  end
  begin
     id 11 
     name lowerback
     direction 0.00668177 0.999323 -0.0361741   
     length 1.7655   
     axis 0 0 0   XYZ
    dof rx ry rz
    limits (-20.0 45.0)
           (-30.0 30.0)
           (-30.0 30.0)
  end
  begin
     id 12 
     name upperback
     direction -0.00222086 0.99851 0.0545167   
     length 1.74912   
     axis 0 0 0   XYZ
    dof rx ry rz
    limits (-20.0 45.0)
           (-30.0 30.0)
           (-30.0 30.0)
  end
  begin
     id 13 
     name thorax
     direction -0.00733971 0.997496 0.0703443   
     length 1.75715   
     axis 0 0 0   XYZ
    dof rx ry rz
    limits (-20.0 45.0)
           (-30.0 30.0)
           (-30.0 30.0)
  end
  begin
     id 14 
     name lowerneck
     direction 0.0279797 0.994795 0.0979765   
     length 1.46939   
     axis 0 0 0   XYZ
    dof rx ry rz
    limits (-20.0 45.0)
           (-30.0 30.0)
           (-30.0 30.0)
  end
  begin
     id 15 
     name upperneck
     direction 0.00339187 0.976776 -0.214238   
     length 1.48018   
     axis 0 0 0   XYZ
    dof rx ry rz
    limits (-20.0 45.0)
           (-30.0 30.0)
           (-30.0 30.0)
  end
  begin
     id 16
     name head
     direction -0.00263506 0.996603 -0.0823096  
     length 1.4976  
     axis 0 0 0   XYZ
    dof rx ry rz
    limits (-20.0 45.0)
           (-30.0 30.0)
           (-30.0 30.0)
  end
  begin
     id 17 
     name lclavicle
     direction 0.894044 0.44508 -0.0508781  
     length 3.03024  
     axis 0 0 0   XYZ
    dof ry rz
    limits (-20.0 10.0)
           (0.0 20.0)
  end
  begin
     id 18 
     name lhumerus
     direction 1 -4.48961e-011 -2.39475e-018   
     length 4.4661   
     axis 180 -30 -90   XYZ
    dof rx ry rz
    limits (-60.0 90.0)
           (-90.0 90.0)
           (-90.0 90.0)
  end
  begin
     id 19
     name lradius
     direction 1 -4.48961e-011 9.29328e-028   
     length 3.41414   
     axis 180 -30 -90   XYZ
    dof rx
    limits (-10.0 170.0)
  end
  begin
     id 20
     name lwrist
     direction 1 -4.48985e-011 1.53461e-026   
     length 1.70707   
     axis -1.09697e-014 90 90   XYZ
    dof ry
    limits (-180.0 0.0)
 end
  begin
     id 21 
     name lhand
     direction 1 -4.48966e-011 3.06923e-026   
     length 0.328298   
     axis -1.95843e-014 90 90   XYZ
    dof rx rz
    limits (-90.0 90.0)
           (-45.0 45.0)
  end
  begin
     id 22 
     name lfingers
     direction 1 -4.48893e-011 6.13845e-026   
     length 0.264682   
     axis -3.91686e-014 90 90   XYZ
    dof rx
    limits (0.0 90.0)
  end
  begin
     id 23
     name lthumb
     direction 0.707107 -6.34876e-011 0.707107   
     length 0.380032   
     axis -90 45 2.85299e-015   XYZ
    dof rx rz
    limits (-45.0 45.0)
           (-45.0 45.0)
  end
  begin
     id 24 
     name rclavicle
     direction -0.936955 0.347862 -0.0332887   
     length 3.26927  
     axis 0 0 0   XYZ 
    dof ry rz
    limits (-10.0 20.0)
           (-20.0 0.0)
  end
  begin
     id 25 
     name rhumerus
     direction -1 -4.4896e-011 1.78637e-018  
     length 4.40431   
     axis 180 30 90   XYZ
    dof rx ry rz
    limits (-90.0 60.0)
           (-90.0 90.0)
           (-90.0 90.0)
  end
  begin
     id 26 
     name rradius
     direction -1 -4.48955e-011 9.34036e-027   
     length 3.04688   
     axis 180 30 90   XYZ
    dof rx
    limits (-10.0 170.0)
  end
  begin
     id 27 
     name rwrist
     direction -1 -4.49011e-011 1.53461e-026   
     length 1.52344   
     axis -1.09697e-014 -90 -90   XYZ
    dof ry
    limits (-180.0 0.0)
  end
  begin
     id 28
     name rhand
     direction -1 -4.48834e-011 3.06923e-026   
     length 0.500489   
     axis -1.95843e-014 -90 -90   XYZ
    dof rx rz
    limits (-90.0 90.0)
           (-45.0 45.0)
  end
  begin
     id 29
     name rfingers
     direction -1 -4.48967e-011 6.13845e-026   
     length 0.403507   
     axis -3.91686e-014 -90 -90   XYZ
    dof rx
    limits (0.0 90.0)
  end
  begin
     id 30
     name rthumb
     direction -0.707107 -6.34826e-011 0.707107   
     length 0.579358   
     axis -90 -45 -2.85299e-015   XYZ
    dof rx rz
    limits (-45.0 45.0)
           (-45.0 45.0)
  end
:hierarchy
  begin
    root lhipjoint rhipjoint lowerback
    lhipjoint lfemur
    lfemur ltibia
    ltibia lfoot
    lfoot ltoes
    rhipjoint rfemur
    rfemur rtibia
    rtibia rfoot
    rfoot rtoes
    lowerback upperback
    upperback thorax
    thorax lowerneck lclavicle rclavicle
    lowerneck upperneck
    upperneck head
    lclavicle lhumerus
    lhumerus lradius
    lradius lwrist
    lwrist lhand lthumb
    lhand lfingers
    rclavicle rhumerus
    rhumerus rradius
    rradius rwrist
    rwrist rhand rthumb
    rhand rfingers
  end

#!OML:ASF H:\IndianDance\Patient Classification 1\Patient 1\Session 1\dancer.ASF
:FULLY-SPECIFIED
:DEGREES
761
root -21.876 13.5342 -7.23979 366.749 24.2237 1.22935
lowerback 10.395 -5.81162 -7.73423
upperback -7.14544 -9.06325 0.62651
thorax -12.3956 -3.59002 6.78173
lowerneck -8.40604 -13.7158 -8.74502
upperneck 4.01381 -19.0312 17.8565
head 5.2001 -8.805 5.21088
rclavicle 3.49364e-014 1.51076e-014
rhumerus -44.9221 -16.9668 -39.4663
rradius 120.231
rwrist -41.764
rhand -40.6728 26.5414
rfingers 7.12502
rthumb -13.6163 -2.99324
lclavicle 3.49364e-014 1.51076e-014
lhumerus 3.84714 -39.4618 12.5591
lradius 118.898
lwrist 7.50694
lhand -49.1667 15.0074
lfingers 7.12502
lthumb -21.7891 43.8009
rfemur -64.9731 0.813003 39.9873
rtibia 68.0069
rfoot 8.3448 21.7125
rtoes 7.15585
lfemur -11.376 5.01471 -43.6532
ltibia 45.2853
lfoot -30.52 3.91047
ltoes 19.0844
762
root -21.6005 13.4806 -7.12881 366.604 23.7021 0.67806
lowerback 9.88381 -6.05365 -7.62302
upperback -7.32249 -9.2808 1.12555
thorax -12.1822 -3.69441 7.2391
lowerneck -8.08321 -13.9978 -8.67924
upperneck 4.07831 -19.4776 17.9991
head 5.23451 -9.02803 5.20179
rclavicle 9.70318e-014 1.27222e-014
rhumerus -43.0318 -18.3535 -37.2111
rradius 116.184
rwrist -47.6049
rhand -39.5289 21.5717
rfingers 7.12502
rthumb -12.5136 -8.03365
lclavicle 9.70318e-014 1.27222e-014
lhumerus 4.18093 -41.9872 11.5413
lradius 120.607
lwrist 3.54069
lhand -50.3636 8.10841
lfingers 7.12502
lthumb -22.9381 36.7639
rfemur -63.7131 -0.123576 43.3497
rtibia 64.8529
rfoot 10.6593 21.3998
rtoes 9.46432
lfemur -10.14 5.81698 -43.9079
ltibia 44.2256
lfoot -30.1875 3.46485
ltoes 19.306
763
root -21.3179 13.4335 -7.01439 366.543 23.1219 0.0900247
lowerback 9.24841 -6.31107 -7.46351
upperback -7.54408 -9.50329 1.65406
thorax -11.9434 -3.80661 7.6838
lowerneck -7.85647 -14.2041 -8.55165
upperneck 4.2872 -19.8327 18.0474
head 5.30008 -9.19769 5.15969
rclavicle 2.73329e-016 -4.37326e-015
rhumerus -40.5738 -19.6089 -35.2898
rradius 111.634
rwrist -53.4565
rhand -38.2258 16.5689
rfingers 7.12502
rthumb -11.2571 -13.109
lclavicle 2.73329e-016 -4.37326e-015
lhumerus 4.73404 -44.4443 10.4105
lradius 122.012
lwrist -0.46077
lhand -51.4995 1.99804
lfingers 7.12502
lthumb -24.0276 30.5141
rfemur -62.4037 -1.24709 46.6953
rtibia 61.897
rfoot 12.6441 20.8971
rtoes 11.1833
lfemur -8.91782 6.7742 -44.098
ltibia 42.969
lfoot -29.6777 2.78093
ltoes 19.5711
764
root -21.028 13.3917 -6.89624 366.594 22.5423 -0.4852
lowerback 8.47803 -6.59782 -7.27439
upperback -7.80851 -9.75473 2.19913
thorax -11.6664 -3.93835 8.11131
lowerneck -7.73148 -14.3397 -8.37455
upperneck 4.64321 -20.1008 17.9868
head 5.39814 -9.31603 5.08091
rclavicle -6.35117e-014 4.27387e-015
rhumerus -37.5944 -20.8156 -33.7215
rradius 106.6
rwrist -59.2311
rhand -36.8431 11.6761
rfingers 7.12502
rthumb -9.92327 -18.07
lclavicle -6.35117e-014 4.27387e-015
lhumerus 5.5464 -46.7876 9.13459
lradius 123.122
lwrist -4.31465
lhand -52.5512 -3.17776
lfingers 7.12502
lthumb -25.0358 25.2015
rfemur -61.1378 -2.51805 49.8737
rtibia 59.2403
rfoot 14.1632 20.1737
rtoes 12.671
lfemur -7.68657 7.81744 -44.2693
ltibia 41.4965
lfoot -28.966 1.84913
ltoes 19.9473
765
root -20.7316 13.3548 -6.77406 366.773 22.0124 -1.00394
lowerback 7.58109 -6.93512 -7.09312
upperback -8.11246 -10.0724 2.75122
thorax -11.3415 -4.10598 8.53365
lowerneck -7.70202 -14.4082 -8.15143
upperneck 5.12172 -20.2858 17.8406
head 5.52384 -9.38533 4.97326
rclavicle -1.25607e-014 -1.59276e-014
rhumerus -34.1253 -22.0061 -32.5649
rradius 101.102
rwrist -64.7722
rhand -35.5567 7.02388
rfingers 7.12502
rthumb -8.68203 -22.7776
lclavicle -1.25607e-014 -1.59276e-014
lhumerus 6.58408 -48.9785 7.70332
lradius 123.971
lwrist -7.85877
lhand -53.5033 -7.26183
lfingers 7.12502
lthumb -25.9478 20.9871
rfemur -59.9977 -3.84547 52.721
rtibia 56.9776
rfoot 15.133 19.2081
rtoes 13.7076
lfemur -6.41871 8.88947 -44.4588
ltibia 39.788
lfoot -28.0079 0.671454
ltoes 20.4808
766
root -20.4294 13.3214 -6.64779 367.086 21.5681 -1.43356
lowerback 6.55812 -7.32573 -6.94534
upperback -8.45127 -10.4646 3.30621
thorax -10.9579 -4.31301 8.95547
lowerneck -7.76173 -14.4105 -7.87887
upperneck 5.6982 -20.3825 17.5885
head 5.66559 -9.40566 4.83207
rclavicle 2.94574e-014 4.07509e-015
rhumerus -30.25 -23.2117 -31.8137
rradius 95.1997
rwrist -69.9452
rhand -34.4586 2.79283
rfingers 7.12502
rthumb -7.6222 -27.0498
lclavicle 2.94574e-014 4.07509e-015
lhumerus 7.83465 -50.9899 6.13351
lradius 124.584
lwrist -10.9179
lhand -54.3908 -10.3383
lfingers 7.12502
lthumb -26.7974 17.7833
rfemur -59.0514 -5.11442 55.0993
rtibia 55.1887
rfoot 15.4737 18.1077
rtoes 14.7921
lfemur -5.09047 9.96121 -44.6975
ltibia 37.8291
lfoot -26.7671 -0.614725
ltoes 20.7206
